<?xml version="1.0" standalone="no"?>
<!DOCTYPE svg PUBLIC "-//W3C//DTD SVG 20010904//EN"
 "http://www.w3.org/TR/2001/REC-SVG-20010904/DTD/svg10.dtd">
<svg version="1.0" xmlns="http://www.w3.org/2000/svg"
 width="1024.000000pt" height="1024.000000pt" viewBox="0 0 1024.000000 1024.000000"
 preserveAspectRatio="xMidYMid meet">
<metadata>
Created by potrace 1.14, written by Peter Selinger 2001-2017
</metadata>
<g transform="translate(0.000000,1024.000000) scale(0.100000,-0.100000)"
fill="#000000" stroke="none">
<path d="M0 5120 l0 -5120 5120 0 5120 0 0 5120 0 5120 -5120 0 -5120 0 0
-5120z m5238 3785 c264 -85 430 -220 538 -435 21 -41 31 -51 62 -59 20 -5 127
-33 237 -61 212 -55 498 -135 630 -177 110 -35 407 -136 481 -164 l62 -22 26
20 c14 11 24 22 21 24 -2 2 25 24 60 49 63 44 64 46 67 95 l3 50 65 33 c69 34
244 112 322 143 l46 18 41 -54 c94 -124 141 -244 141 -360 0 -33 -10 -106 -22
-162 l-21 -102 -51 -17 c-70 -23 -106 -42 -106 -57 0 -7 42 -34 93 -60 50 -26
126 -66 168 -89 l77 -42 5 -91 c3 -49 11 -474 17 -942 15 -1082 5 -1418 -56
-1838 -77 -533 -244 -983 -562 -1515 -80 -134 -313 -466 -385 -550 -12 -14
-42 -50 -67 -80 -92 -113 -331 -378 -407 -451 -181 -175 -420 -372 -688 -571
-180 -133 -604 -402 -837 -532 -78 -43 -57 -48 -243 62 -291 173 -582 362
-730 474 -49 37 -103 78 -120 91 -303 228 -670 570 -886 827 -284 338 -535
713 -723 1083 -203 399 -305 723 -370 1177 -49 340 -51 422 -49 1650 1 630 4
1160 6 1179 3 34 7 37 180 125 201 101 200 100 78 139 l-74 24 -23 99 c-48
208 -24 337 92 500 60 83 67 89 96 70 13 -8 61 -31 108 -51 117 -50 114 -49
213 -94 l87 -41 0 -50 c0 -48 2 -51 43 -77 23 -15 61 -45 84 -66 l42 -40 63
22 c194 69 551 188 668 222 326 96 444 129 583 165 131 33 150 40 158 62 20
53 105 170 167 229 70 68 140 118 224 160 57 28 225 92 246 93 7 0 61 -16 120
-35z"/>
<path d="M5050 8816 c-215 -79 -373 -209 -459 -376 -24 -47 -45 -86 -46 -88
-2 -2 -61 -18 -132 -36 -340 -88 -989 -288 -1296 -400 -54 -20 -104 -36 -112
-36 -8 0 -42 24 -77 53 -35 30 -95 73 -135 96 -70 42 -71 43 -62 74 14 50 12
55 -43 83 -77 39 -259 106 -273 100 -15 -6 -39 -50 -71 -134 -29 -76 -32 -176
-8 -266 20 -75 42 -96 99 -96 38 0 44 -3 56 -31 7 -18 30 -53 51 -80 21 -27
38 -51 38 -53 0 -3 -69 -40 -152 -82 -84 -42 -171 -87 -194 -100 l-41 -24 -6
-362 c-10 -548 -8 -1649 3 -1879 19 -377 57 -676 116 -907 43 -169 124 -420
164 -507 17 -36 30 -68 30 -71 0 -10 150 -305 191 -377 165 -285 333 -530 558
-812 192 -241 415 -466 741 -746 219 -188 625 -467 1044 -718 l89 -54 71 39
c274 147 793 499 1076 728 91 73 336 295 404 365 27 27 54 47 59 44 6 -3 7 -2
4 4 -4 6 5 21 19 34 68 63 319 368 464 564 78 104 240 342 240 351 0 3 13 24
28 47 52 77 140 240 215 397 170 354 272 683 327 1055 53 360 52 356 57 1305
3 492 2 1030 -2 1196 l-7 301 -166 89 c-92 49 -180 95 -196 102 l-28 12 26 33
c14 17 38 53 53 80 29 49 32 51 95 62 35 5 39 10 54 58 9 29 19 93 21 143 5
81 3 97 -22 160 -15 38 -36 84 -47 102 -25 41 -28 40 -210 -33 l-133 -53 0
-55 c0 -30 -2 -57 -5 -60 -3 -2 -26 -14 -52 -26 -26 -13 -81 -54 -121 -91
l-74 -69 -124 45 c-232 84 -581 197 -799 257 -130 36 -515 139 -586 157 -36 9
-43 15 -58 54 -42 109 -140 230 -251 308 -75 53 -98 65 -219 109 -86 31 -131
35 -186 15z m170 -209 c109 -45 226 -143 344 -289 21 -26 59 -61 84 -79 l47
-31 -35 7 c-19 4 -36 11 -38 16 -2 4 -10 5 -19 2 -10 -4 -14 -2 -10 4 4 6 -2
8 -16 6 -14 -3 -77 24 -169 70 -209 107 -279 117 -398 57 -154 -78 -288 -330
-309 -579 l-7 -86 -10 50 c-5 28 -8 111 -7 185 1 108 6 154 26 231 44 167 117
289 220 366 128 94 197 111 297 70z m123 -288 c25 -12 104 -84 192 -174 140
-143 154 -154 203 -166 46 -11 51 -15 37 -25 -26 -19 -108 -27 -151 -15 -50
15 -114 74 -203 188 -85 110 -138 156 -200 179 -72 27 -71 34 7 34 54 0 84 -5
115 -21z m-140 -118 l32 -21 -52 6 c-40 5 -51 3 -51 -7 1 -8 0 -59 0 -114 l-2
-101 -42 -12 c-24 -7 -48 -15 -53 -18 -7 -2 -17 43 -28 118 -10 68 -17 126
-17 129 0 5 46 27 90 43 28 10 90 -2 123 -23z m-2650 -72 c45 -18 83 -33 85
-34 2 -1 -2 -24 -9 -50 -12 -46 -13 -47 -94 -86 -46 -21 -86 -39 -90 -39 -5 0
-5 46 -2 103 5 93 12 137 23 137 3 0 42 -14 87 -31z m5256 -40 c10 -61 6 -169
-5 -169 -3 0 -12 4 -22 10 -9 5 -42 21 -73 35 -50 23 -59 31 -78 77 -12 28
-20 52 -19 53 3 2 117 47 148 58 32 12 37 5 49 -64z m-3349 -213 c-4 -4 -165
-55 -357 -113 -191 -57 -409 -124 -483 -149 l-135 -44 -100 100 c-54 54 -97
102 -94 105 20 19 559 191 944 300 l220 63 7 -127 c3 -69 2 -130 -2 -135z
m1000 52 c0 -12 3 -19 6 -15 3 3 24 -20 45 -52 92 -137 244 -246 368 -261 l56
-7 -39 -17 c-82 -37 -174 -18 -252 51 -95 84 -208 282 -279 488 -4 11 16 -22
44 -73 28 -51 51 -102 51 -114z m888 47 c207 -59 594 -184 628 -203 10 -6 -13
-34 -86 -107 -98 -98 -99 -99 -132 -88 -150 48 -494 153 -681 209 l-228 68 68
35 c37 20 95 62 128 93 33 32 64 57 68 58 5 0 110 -29 235 -65z m-3578 -71
l39 -36 -59 -30 c-33 -16 -69 -41 -80 -55 -16 -20 -23 -24 -32 -15 -9 9 -3 22
27 53 39 41 36 46 -17 24 -13 -5 -18 -2 -18 9 0 9 5 16 11 16 5 0 8 4 4 9 -6
11 53 61 72 61 7 0 31 -16 53 -36z m4785 26 c-3 -5 1 -10 10 -10 16 0 85 -67
85 -83 0 -4 -16 0 -36 8 -49 20 -50 20 -20 -16 44 -52 32 -65 -23 -25 -27 20
-65 43 -85 51 l-36 15 38 35 c33 31 82 49 67 25z m-2350 -71 c28 -23 52 -43
55 -46 3 -3 -20 -2 -50 2 -70 10 -83 10 -153 -2 -51 -9 -58 -8 -55 6 4 20 104
81 133 81 11 0 43 -18 70 -41z m-2296 -89 c35 -32 49 -51 40 -54 -8 -2 -57 -9
-110 -15 -53 -6 -105 -13 -115 -17 -18 -5 -17 -4 1 11 11 9 45 23 75 33 43 12
50 17 31 20 -17 3 -20 6 -11 12 8 5 -2 10 -29 15 -42 7 -45 20 -7 35 44 18 70
10 125 -40z m4576 38 c36 -16 31 -26 -22 -41 l-46 -14 66 -31 c75 -35 85 -46
30 -30 -21 6 -81 13 -133 17 l-94 6 63 53 c65 54 90 61 136 40z m-2340 -500
c0 -225 1 -408 2 -408 1 0 37 16 79 35 42 19 79 34 80 32 8 -8 -172 -94 -186
-89 -8 3 -22 13 -32 22 -10 9 -38 23 -61 30 -23 8 -60 22 -82 33 -51 25 -197
119 -192 124 2 2 42 -13 88 -33 198 -86 289 -122 289 -113 0 12 -56 46 -178
109 -125 63 -265 155 -310 202 l-33 35 21 55 c38 101 122 211 220 286 35 27
102 60 195 97 80 32 80 32 90 11 6 -13 10 -177 10 -428z m193 365 c87 -42 218
-178 264 -273 54 -113 56 -127 22 -156 -75 -62 -301 -194 -331 -194 -9 0 10
12 157 98 58 34 119 73 135 86 l30 24 -18 52 c-43 120 -170 281 -278 350 -46
30 -57 40 -43 40 3 0 31 -12 62 -27z m-2320 -7 c15 -8 40 -28 55 -44 l29 -30
-59 -6 c-32 -3 -96 -8 -143 -10 l-85 -5 55 19 c30 10 71 19 90 20 l35 2 -28
10 c-15 5 -25 14 -21 19 3 5 -7 9 -22 9 -36 0 -23 11 23 20 21 4 39 8 41 9 2
0 15 -5 30 -13z m4327 -6 c3 -5 0 -10 -7 -10 -8 0 -23 -6 -33 -14 -17 -13 -12
-16 60 -40 70 -22 75 -25 35 -21 -25 2 -88 7 -141 11 l-96 6 41 39 c35 33 47
39 88 39 26 0 50 -4 53 -10z m-4130 -182 c36 -35 65 -66 65 -70 0 -5 -21 -8
-47 -8 -27 0 -93 -7 -147 -15 -55 -8 -102 -15 -105 -15 -18 2 72 39 119 50 30
7 66 16 80 21 23 7 23 7 3 8 -12 1 -25 6 -28 11 -3 6 -24 10 -46 10 -21 0 -39
4 -39 9 0 4 11 6 24 4 13 -3 27 1 31 8 6 9 -18 11 -116 6 -68 -3 -117 -2 -109
3 25 14 151 38 203 39 45 1 51 -2 112 -61z m4027 52 c38 -6 83 -16 100 -24 30
-12 24 -13 -77 -10 -60 1 -100 1 -87 -2 50 -12 15 -27 -103 -46 -11 -2 18 -13
65 -25 91 -23 145 -41 139 -47 -2 -3 -24 -1 -49 4 -25 5 -91 11 -147 15 l-102
8 72 68 c79 74 80 75 189 59z m-3157 -134 c-49 -23 -122 -55 -161 -70 -70 -28
-71 -28 -83 -76 -7 -26 -22 -61 -34 -77 -26 -34 -96 -98 -102 -92 -2 3 14 40
36 83 21 43 39 86 39 96 0 16 -3 16 -52 0 -29 -9 -81 -25 -115 -35 -35 -10
-63 -23 -63 -27 0 -5 7 -23 16 -41 21 -40 22 -123 1 -162 -29 -57 -103 -105
-160 -105 -41 0 -127 50 -152 89 -32 49 -39 81 -25 130 21 80 110 151 190 151
19 0 110 16 202 37 139 31 168 41 168 56 0 12 8 17 30 17 30 0 238 42 295 59
67 21 55 7 -30 -33z m2177 4 c76 -16 156 -30 178 -30 31 0 40 -4 40 -17 0 -26
216 -85 330 -91 99 -5 144 -24 189 -79 60 -73 63 -157 7 -221 -43 -49 -106
-76 -161 -67 -51 7 -118 53 -140 94 -21 42 -19 124 5 171 l20 39 -37 10 c-21
6 -77 24 -126 40 l-87 30 6 -27 c4 -15 22 -55 41 -90 19 -35 32 -66 29 -69 -3
-3 -25 11 -50 30 -47 39 -86 106 -86 149 0 21 -7 27 -42 38 -52 15 -269 110
-283 123 -6 6 -3 7 10 3 11 -3 82 -19 157 -36z m-2939 -39 c27 -2 20 -17 -15
-32 -18 -7 -48 -24 -66 -38 -24 -17 -50 -26 -90 -28 l-57 -4 40 19 c22 10 54
22 70 27 22 6 25 9 12 12 -9 3 -15 9 -12 14 4 5 -5 9 -19 9 -49 0 -26 19 27
22 48 3 63 3 110 -1z m3751 -10 c28 -11 2 -25 -32 -17 l-27 7 25 -21 c14 -11
48 -29 75 -39 l50 -20 -40 0 c-22 -1 -53 7 -70 16 -16 9 -54 29 -83 43 -28 15
-49 30 -45 33 9 9 123 8 147 -2z m-4556 -46 c-3 -3 -9 2 -12 12 -6 14 -5 15 5
6 7 -7 10 -15 7 -18z m-25 -4 c-2 -6 2 -11 7 -11 6 0 10 -5 10 -10 0 -15 -36
5 -43 24 -4 9 0 13 11 11 9 -1 16 -8 15 -14z m0 -54 c-3 -6 -1 -7 4 -4 6 4 16
0 23 -8 7 -8 16 -12 20 -10 5 3 21 -10 35 -30 15 -19 31 -32 36 -29 5 3 9 0 9
-6 0 -7 11 -25 25 -42 50 -59 23 -47 -32 16 -32 35 -60 62 -62 60 -3 -3 19
-28 47 -57 l52 -53 -12 -84 c-9 -61 -12 -314 -13 -890 0 -839 4 -952 45 -1246
17 -114 18 -149 9 -167 -31 -58 -203 -327 -209 -327 -10 0 -14 21 -44 235 -36
253 -45 364 -56 687 -17 528 -9 1540 16 1911 7 109 12 114 66 70 32 -26 32
-26 11 -2 -33 37 -28 48 7 14 16 -15 27 -33 23 -38z m5232 -7 c-19 -38 -47
-82 -62 -97 -16 -16 -36 -40 -45 -53 -9 -14 -17 -20 -17 -13 -1 6 20 35 45 65
26 29 54 69 63 88 24 51 41 80 46 80 3 0 -11 -31 -30 -70z m80 28 l-40 -42 44
37 c25 21 50 36 55 34 28 -9 46 -390 52 -1067 7 -829 -11 -1235 -72 -1655 -30
-205 -32 -212 -48 -194 -7 8 -58 88 -114 179 l-100 165 18 106 c43 248 45 310
45 1194 0 468 -3 899 -7 958 l-8 108 46 49 c26 28 43 50 39 50 -5 0 -2 8 6 18
8 9 23 34 32 56 10 21 20 36 23 33 3 -3 -3 -18 -12 -34 -17 -25 -15 -25 24 10
56 50 66 47 17 -5z m-5144 0 c8 -15 8 -19 0 -14 -6 4 -11 2 -11 -4 0 -6 -4 -8
-10 -5 -5 3 -10 1 -10 -5 0 -6 -4 -8 -10 -5 -5 3 -10 0 -10 -7 -1 -8 -6 -6
-15 6 -20 27 -19 45 1 20 15 -18 15 -18 10 0 -6 16 -4 17 9 6 18 -15 20 0 3
20 -7 8 -3 6 10 -4 23 -20 31 -10 10 13 -10 11 -10 12 -1 7 7 -4 18 -16 24
-28z m-103 8 c7 -4 11 -14 8 -21 -2 -7 1 -16 8 -18 8 -3 19 -20 25 -39 l11
-33 -27 34 c-53 67 -55 68 -48 46 6 -18 5 -19 -10 -4 -29 29 -2 57 33 35z
m5144 -27 c-9 -23 -41 -67 -70 -98 -30 -31 -47 -45 -39 -32 9 13 13 29 11 36
-3 7 -1 16 5 20 7 4 8 -1 4 -12 -6 -17 -5 -17 15 0 20 18 20 53 0 41 -6 -4 -5
3 1 15 14 25 23 28 14 4 -4 -11 -3 -14 5 -9 8 5 10 2 6 -8 -14 -36 8 -12 31
34 31 61 40 65 17 9z m-5026 -36 c-8 24 -3 21 24 -15 22 -31 22 -32 2 -14 -31
27 -27 8 5 -28 24 -27 23 -26 -10 3 -46 43 -49 30 -4 -17 23 -25 26 -31 9 -21
-12 8 -34 31 -49 52 -14 20 -28 35 -31 32 -3 -3 3 -18 14 -33 11 -15 24 -34
29 -42 8 -13 7 -13 -9 -1 -28 23 -50 71 -37 84 8 8 15 5 26 -9 15 -18 16 -18
9 6 -6 25 -6 25 11 5 14 -17 16 -17 11 -2z m45 -10 c13 -16 12 -17 -3 -4 -10
7 -18 15 -18 17 0 8 8 3 21 -13z m4869 -33 c-6 -11 -13 -20 -16 -20 -2 0 0 9
6 20 6 11 13 20 16 20 2 0 0 -9 -6 -20z m-2941 -65 c23 -10 41 -22 41 -27 0
-5 4 -6 10 -3 10 6 48 -27 66 -56 5 -9 32 -29 59 -45 28 -15 93 -56 145 -89
52 -34 113 -72 135 -84 l41 -22 89 54 c50 30 145 87 213 127 68 40 150 92 184
117 l61 45 -7 -104 c-14 -228 -13 -222 -61 -258 -24 -18 -54 -53 -68 -79 -43
-79 -101 -287 -148 -525 -6 -33 -17 -78 -25 -99 -8 -22 -12 -42 -10 -44 2 -2
42 47 89 109 47 62 96 124 111 137 14 13 23 28 20 33 -3 4 -14 -2 -24 -14 -11
-13 -19 -18 -20 -11 0 6 4 14 10 18 5 3 7 12 3 20 -3 11 -1 13 10 9 13 -5 14
10 10 115 -5 98 -2 134 12 189 18 68 53 148 61 140 2 -3 -1 -50 -6 -105 -12
-111 -1 -250 25 -322 l14 -41 -77 -92 c-78 -94 -332 -361 -338 -355 -2 1 8 70
21 152 32 196 74 568 65 578 -12 14 -27 -16 -68 -143 -22 -69 -43 -132 -46
-140 -6 -17 2 196 10 275 l6 50 115 60 c149 76 177 102 193 180 7 33 19 72 27
87 14 30 17 58 6 58 -5 0 -41 -25 -81 -55 -69 -52 -102 -69 -86 -44 10 17 -54
-23 -74 -45 -9 -11 -11 -16 -4 -12 6 4 12 5 12 3 0 -3 -48 -38 -107 -78 -60
-40 -111 -77 -114 -82 -4 -5 -102 54 -219 132 -117 78 -225 148 -242 157 -28
14 -29 14 -20 -3 21 -42 41 -91 57 -145 20 -64 40 -82 197 -167 43 -24 80 -46
82 -49 2 -4 7 -77 10 -162 l7 -155 -39 110 c-45 129 -52 142 -86 174 -27 25
-34 15 -15 -20 5 -11 17 -77 24 -147 28 -240 65 -494 82 -557 11 -41 -250 234
-353 370 l-52 70 20 75 c17 64 19 95 14 210 -3 74 -8 149 -11 165 l-6 30 24
-27 c32 -35 73 -159 98 -294 28 -156 25 -206 -9 -172 -6 6 -14 9 -18 5 -6 -6
178 -268 184 -262 2 1 -4 31 -12 66 -8 35 -29 129 -47 209 -34 155 -98 354
-131 407 -10 18 -37 47 -57 65 l-39 33 -11 146 c-6 81 -11 164 -11 184 l0 38
19 -25 c11 -13 38 -33 60 -43z m-1938 -12 c12 -16 12 -17 -2 -6 -9 7 -20 9
-24 5 -5 -4 -5 -1 -1 6 9 16 11 15 27 -5z m442 -133 c-8 -33 -33 -82 -77 -150
-39 -60 -43 -77 -22 -105 13 -18 18 -15 86 55 l71 75 -41 -63 c-44 -67 -90
-163 -90 -187 0 -8 -3 -15 -7 -14 -10 0 -103 146 -103 160 0 5 38 71 85 146
47 75 85 144 86 152 0 9 5 3 10 -14 4 -16 6 -41 2 -55z m4095 -144 c29 -43 52
-81 52 -85 0 -3 -23 -42 -51 -86 l-51 -79 -18 46 c-16 43 -50 105 -106 193
l-25 40 43 -45 c24 -25 58 -62 76 -84 31 -36 34 -37 47 -20 24 31 17 54 -37
143 -45 73 -53 94 -56 146 l-4 60 39 -75 c22 -41 62 -110 91 -154z m-3358 169
c17 -25 29 -45 27 -45 -3 0 -26 9 -52 21 -106 47 -209 -34 -175 -137 11 -33
117 -150 127 -140 2 2 -1 21 -7 43 -6 21 -10 58 -8 83 l3 45 29 -50 c28 -49
275 -357 296 -370 6 -4 -15 -25 -46 -47 l-57 -39 -34 33 c-68 66 -308 349
-330 390 -13 22 -23 57 -23 77 0 20 10 57 23 81 17 35 34 51 76 73 30 15 69
27 87 27 28 0 38 -7 64 -45z m2612 31 c120 -43 162 -168 92 -272 -30 -44 -281
-339 -317 -372 l-25 -23 -53 37 c-30 21 -56 39 -58 41 -4 3 4 14 152 189 60
71 121 151 136 177 24 41 30 46 41 32 10 -12 10 -26 -2 -75 -8 -33 -11 -60 -7
-60 4 0 32 27 62 59 83 90 85 156 8 208 -44 29 -77 29 -135 -2 -25 -13 -46
-22 -46 -20 0 2 14 25 32 50 35 50 54 54 120 31z m-1077 -136 c-3 -5 -11 -10
-16 -10 -6 0 -7 5 -4 10 3 6 11 10 16 10 6 0 7 -4 4 -10z m-1905 -100 c60 -2
4 -18 -69 -19 -63 -1 -144 16 -136 28 2 4 41 3 87 0 46 -4 99 -8 118 -9z
m3415 -5 c-34 -16 -201 -20 -210 -6 -7 12 37 18 150 19 84 0 88 -1 60 -13z
m-3360 -105 c4 -6 11 -8 16 -5 5 4 9 1 9 -4 0 -6 5 -11 11 -11 5 0 7 5 3 11
-11 18 28 -6 53 -33 12 -12 63 -77 113 -143 l91 -120 -33 -3 c-37 -4 -45 3
-190 183 -45 55 -88 108 -96 118 -13 15 -13 17 1 17 9 0 19 -5 22 -10z m3139
-19 c-10 -16 -51 -69 -92 -118 -41 -48 -88 -107 -105 -130 -28 -39 -34 -43
-74 -43 l-43 0 71 98 c135 187 158 207 252 221 5 0 0 -12 -9 -28z m-3755 10
c15 -10 10 -20 -32 -73 -16 -20 -37 -24 -37 -8 0 6 -21 25 -46 43 l-46 32 29
6 c43 10 116 10 132 0z m4464 3 l38 -7 -48 -43 c-26 -24 -51 -43 -55 -44 -11
0 -68 83 -62 92 6 9 73 10 127 2z m-2970 -484 c70 -149 170 -294 324 -467 40
-45 73 -85 73 -88 0 -14 -128 96 -198 170 -42 44 -72 73 -68 65 11 -23 -61 58
-105 118 -41 54 -117 207 -150 300 l-19 54 32 39 32 39 17 -67 c10 -38 38
-111 62 -163z m1498 110 c-6 -36 -126 -264 -166 -317 -80 -105 -290 -306 -365
-348 -16 -9 -14 -6 91 115 115 133 225 287 292 413 41 77 87 197 87 230 0 17
8 10 32 -28 18 -27 31 -57 29 -65z m-3013 -15 c8 -18 19 -25 39 -25 l26 0 -22
-24 c-16 -17 -21 -31 -16 -45 7 -24 5 -25 -30 -9 -19 9 -28 9 -37 0 -19 -19
-29 -14 -23 11 4 15 -1 30 -16 46 l-23 24 27 -5 c21 -4 28 0 38 23 14 36 22
36 37 4z m4426 0 c5 -19 13 -25 32 -25 26 0 26 0 10 -25 -11 -16 -14 -34 -10
-47 5 -18 3 -20 -12 -13 -24 10 -44 10 -67 0 -15 -6 -17 -4 -12 17 4 16 1 31
-9 41 -21 21 -20 27 4 27 13 0 24 10 30 25 5 14 14 25 19 25 5 0 12 -11 15
-25z m-1285 -78 c3 -25 -171 -275 -273 -392 -70 -80 -179 -183 -154 -145 9 14
42 66 74 115 32 50 78 121 102 159 60 93 139 229 163 283 l20 44 34 -28 c18
-15 34 -31 34 -36z m-1771 -33 c55 -110 187 -321 277 -444 23 -30 51 -73 64
-95 l23 -40 -52 50 c-72 70 -207 226 -268 311 -67 93 -162 244 -162 258 0 11
47 43 65 45 6 1 30 -38 53 -85z m-280 56 c40 -15 42 -30 3 -30 -56 0 -208 -31
-301 -62 -157 -51 -321 -142 -418 -232 -26 -23 -58 -50 -71 -59 -30 -20 -21
-24 74 -30 l69 -5 57 53 c65 60 146 107 270 159 98 40 269 90 345 101 l52 7
51 -84 c29 -46 113 -168 187 -273 75 -104 140 -199 146 -210 l10 -20 -19 20
c-39 40 -190 221 -233 280 -67 92 -160 209 -160 201 0 -3 11 -23 25 -44 13
-20 31 -55 41 -77 l16 -40 -37 40 -37 40 17 -33 c9 -18 18 -46 20 -63 3 -23 0
-29 -15 -29 -22 0 -30 -18 -19 -46 6 -18 5 -21 -12 -17 -10 3 -17 9 -14 13 3
5 -4 6 -16 3 -19 -5 -19 -7 8 -24 15 -11 23 -19 17 -19 -6 0 -58 30 -115 66
-233 148 -302 165 -133 32 60 -47 120 -98 134 -114 28 -31 19 -27 -60 26 -55
38 -160 94 -160 86 0 -2 25 -23 56 -46 42 -32 53 -45 43 -51 -8 -5 -10 -9 -6
-9 5 0 6 -4 2 -10 -4 -6 -16 -6 -33 1 -23 8 -22 5 13 -25 70 -60 32 -48 -64
21 -63 45 -103 67 -127 69 -19 1 -34 -1 -34 -6 0 -5 42 -40 93 -78 96 -73 179
-152 160 -152 -7 0 -61 24 -120 54 -204 101 -413 166 -544 169 -42 1 -65 6
-61 12 30 49 133 173 188 226 112 107 249 183 388 215 72 16 274 13 324 -6z
m2554 1 c194 -50 369 -178 530 -387 l47 -61 -107 -6 c-132 -7 -264 -44 -436
-123 -181 -83 -184 -85 -190 -75 -7 10 96 100 184 162 121 85 47 76 -95 -11
-36 -22 -65 -36 -65 -30 0 5 4 12 10 15 5 3 15 15 20 25 10 18 8 19 -17 9 -15
-6 -36 -18 -45 -26 -10 -9 -18 -11 -18 -6 0 6 7 16 15 23 8 7 15 19 15 27 0 8
12 25 28 39 24 23 21 23 -33 -7 -33 -18 -76 -42 -95 -54 -67 -41 -67 -41 -51
-21 8 9 70 60 138 113 68 53 123 99 123 104 0 14 -130 -50 -227 -112 -117 -74
-130 -80 -113 -50 6 13 9 25 6 28 -3 4 3 12 14 20 11 8 20 20 20 28 0 20 -20
29 -33 16 -17 -17 -46 -13 -46 7 0 34 -6 57 -19 67 -11 9 -10 18 8 48 47 79
10 40 -123 -131 -125 -161 -262 -320 -241 -281 5 9 72 105 149 213 77 108 159
228 183 266 30 49 50 70 63 70 30 0 225 -46 290 -68 133 -46 287 -129 376
-202 47 -40 49 -40 130 -40 46 0 83 4 83 9 0 12 -164 135 -260 194 -128 79
-322 143 -520 173 -65 9 -82 20 -50 32 46 17 64 20 171 21 75 1 128 -5 181
-18z m-444 -303 c-2 -6 -10 -14 -16 -16 -7 -2 -10 2 -6 12 7 18 28 22 22 4z
m-2787 -254 c79 -24 156 -65 246 -133 95 -72 115 -92 81 -84 l-23 6 20 -24
c25 -30 37 -39 45 -34 4 2 7 -2 7 -9 0 -9 -40 5 -116 41 -64 31 -163 71 -221
91 -101 34 -111 36 -252 36 -82 1 -148 4 -148 7 0 10 108 109 119 109 15 0 14
-12 -6 -39 l-16 -24 39 6 c21 4 50 7 64 8 21 0 22 1 6 8 -17 6 -15 10 15 29
41 26 68 27 140 6z m3680 -2 c43 -32 139 -68 139 -52 0 5 -4 12 -10 15 -5 3
-14 15 -20 25 -9 17 -7 18 23 9 27 -7 115 -82 117 -99 0 -3 -51 -4 -112 -2
-155 5 -255 -18 -465 -108 -91 -39 -167 -69 -170 -66 -2 2 5 7 16 11 12 3 19
11 16 16 -4 5 10 16 30 26 38 18 29 38 -12 22 -50 -19 -18 10 85 78 128 84
138 90 222 120 79 27 110 29 141 5z m-2903 -24 c18 -18 14 -34 -9 -35 -35 -3
-42 -18 -24 -52 10 -20 20 -29 28 -24 7 4 7 0 -2 -10 -23 -29 -68 -22 -91 16
-24 37 -19 73 12 100 23 20 68 23 86 5z m2109 -10 c47 -44 18 -128 -44 -128
-38 0 -73 36 -73 75 0 65 70 97 117 53z m-970 -49 c228 -97 693 -260 1001
-350 l72 -21 0 -41 c0 -91 -84 -537 -98 -523 -2 3 3 56 12 118 17 117 35 397
26 403 -10 6 -665 223 -692 229 -52 12 -28 -2 65 -38 50 -20 103 -43 117 -51
24 -13 24 -14 4 -15 -12 0 -66 11 -120 25 -53 14 -99 24 -100 22 -2 -1 38 -27
89 -56 102 -58 92 -60 -63 -14 -83 24 -325 116 -406 155 l-41 19 -204 -87
c-215 -90 -348 -142 -644 -248 l-180 -64 2 -33 1 -32 -24 29 -25 29 5 -225 c3
-158 10 -265 25 -360 12 -74 21 -139 21 -145 -1 -5 -17 28 -36 75 -44 109 -78
234 -104 383 -23 139 -54 436 -46 445 3 3 59 20 124 39 313 89 737 236 972
338 71 30 113 43 130 39 13 -3 66 -23 117 -45z m-2047 -99 c78 -19 162 -48
146 -49 -5 -1 -32 5 -60 13 -76 21 -175 38 -186 31 -19 -12 -9 -20 28 -22 85
-5 307 -81 326 -111 3 -5 -32 3 -77 17 -72 22 -101 25 -233 25 l-152 1 32 38
c17 21 38 47 46 57 19 24 37 24 130 0z m3997 -41 l52 -55 -117 4 c-107 4 -252
-14 -359 -43 -10 -3 15 11 56 30 89 43 200 75 258 75 23 0 44 4 48 9 8 15 -31
23 -78 17 -40 -5 -40 -4 8 8 28 7 57 12 65 12 8 -1 38 -26 67 -57z m-200 25
c-3 -3 -12 -4 -19 -1 -8 3 -5 6 6 6 11 1 17 -2 13 -5z m-3832 -119 c127 -19
244 -53 338 -99 76 -37 166 -92 132 -81 -295 100 -395 124 -505 125 -54 0 -89
-6 -127 -22 l-53 -22 82 -17 c46 -9 121 -30 168 -46 97 -35 376 -166 362 -171
-5 -1 -47 11 -93 28 -278 104 -404 139 -531 147 -54 3 -98 8 -98 11 0 2 12 19
28 37 15 19 42 54 60 79 31 44 35 46 84 46 28 0 97 -7 153 -15z m4164 -61 c34
-42 61 -80 61 -85 0 -5 -29 -9 -65 -9 -36 0 -101 -7 -143 -16 -60 -12 -309
-90 -447 -140 -43 -15 3 16 95 64 116 62 269 116 375 133 61 9 74 14 55 19
-14 4 -40 14 -57 23 -84 44 -342 -5 -628 -117 -38 -15 40 34 115 73 147 76
352 128 512 130 l66 1 61 -76z m-2180 -18 c28 -29 25 -52 -10 -78 -22 -17 -30
-18 -48 -8 -12 6 -26 23 -32 37 -8 21 -6 30 12 50 28 29 50 29 78 -1z m-173
-102 c-3 -9 -1 -12 4 -9 6 3 10 1 10 -6 0 -19 -40 -48 -123 -90 l-78 -40 33
-27 c56 -47 87 -86 94 -118 3 -17 7 -386 8 -820 2 -754 3 -796 24 -949 13 -88
31 -200 41 -250 10 -49 18 -91 17 -92 -4 -5 -107 206 -135 279 -126 321 -185
567 -261 1098 -45 316 -122 736 -146 795 -17 43 -20 61 -12 67 7 4 89 35 183
69 93 33 206 78 250 98 65 31 82 35 88 24 5 -8 6 -21 3 -29z m362 4 c42 -17
160 -63 263 -102 l186 -71 -19 -55 c-19 -53 -60 -281 -133 -735 -111 -693
-165 -904 -319 -1255 -51 -116 -101 -203 -92 -160 3 14 12 69 21 123 48 300
47 275 54 1142 3 457 10 836 15 843 22 35 84 96 108 106 28 12 28 12 -47 51
-41 21 -72 42 -68 48 3 6 1 7 -5 3 -14 -8 -59 13 -66 31 -4 8 -1 11 5 8 6 -4
10 -1 8 6 -3 23 1 49 7 49 3 0 40 -14 82 -32z m-2455 -104 l-17 -26 30 5 c115
23 188 14 303 -38 61 -28 65 -29 55 -13 -4 7 -3 8 5 4 6 -4 9 -11 6 -15 -2 -5
8 -13 23 -20 25 -11 26 -10 8 4 -31 23 -13 18 61 -19 109 -55 220 -89 273 -83
44 4 45 4 15 -9 -58 -25 -138 -13 -337 51 -187 61 -314 88 -415 89 -101 1 -99
-2 -39 64 36 39 53 42 29 6z m4332 16 c-3 -5 -16 -10 -28 -9 -21 0 -21 1 -2 9
28 12 37 12 30 0z m150 -8 c11 -10 32 -31 47 -48 l27 -29 -102 -2 c-108 -1
-234 -29 -487 -109 -124 -39 -220 -52 -260 -36 -23 10 -22 11 16 11 61 1 136
27 274 93 150 72 224 102 214 87 -4 -8 1 -9 17 -3 13 5 74 9 136 8 l111 -1
-15 24 c-18 27 -6 30 22 5z m-4307 1 c-10 -2 -28 -2 -40 0 -13 2 -5 4 17 4 22
1 32 -1 23 -4z m2025 -20 c14 -33 23 -1180 9 -1328 l-8 -90 -12 115 c-20 190
-31 349 -72 1000 -10 162 -11 165 -41 203 -24 29 -29 42 -20 50 14 15 113 75
124 76 4 1 13 -11 20 -26z m118 11 c7 -8 32 -25 56 -38 l44 -22 -41 -51 -41
-52 -29 -202 c-16 -111 -31 -203 -33 -206 -14 -14 -24 515 -11 565 7 26 36 29
55 6z m-2287 -201 c1 -24 -2 -39 -7 -36 -5 3 -8 0 -5 -8 3 -8 9 -14 14 -15 5
0 77 -4 159 -9 185 -10 177 -14 -90 -51 -27 -4 -42 -9 -32 -11 9 -3 15 -9 12
-14 -4 -5 9 -9 28 -9 19 0 50 -3 68 -7 l34 -7 -45 -12 -45 -12 60 -2 c61 -1
58 -10 -9 -25 -15 -3 -26 -8 -24 -10 5 -5 249 44 363 74 43 11 81 19 82 17 12
-12 -317 -128 -483 -171 -107 -27 -327 -74 -332 -70 -1 1 19 34 45 72 26 39
79 134 118 212 38 78 73 140 78 138 5 -1 10 -21 11 -44z m4485 -83 c32 -65 84
-155 114 -201 36 -55 51 -85 42 -87 -11 -3 -109 17 -300 60 -130 29 -523 164
-511 175 2 2 48 -7 102 -21 93 -23 307 -66 329 -66 6 0 4 4 -2 8 -8 5 18 13
63 21 58 10 74 16 70 27 -3 9 1 14 14 14 11 0 20 4 20 10 0 10 -17 13 -145 31
-44 6 -109 16 -145 23 l-65 13 144 5 c122 4 145 7 153 22 5 10 16 15 26 12 15
-5 17 1 13 40 -5 68 10 51 78 -86z m-3081 104 c54 -38 44 -125 -16 -139 -41
-9 -68 8 -81 48 -25 75 37 133 97 91z m1677 -9 c35 -34 34 -86 -1 -114 -15
-12 -35 -21 -46 -21 -30 0 -68 45 -68 80 0 36 38 80 70 80 12 0 32 -11 45 -25z
m-3034 -63 c-7 -2 -18 1 -23 6 -8 8 -4 9 13 5 13 -4 18 -8 10 -11z m3114 -109
c-16 -115 -102 -427 -164 -600 -74 -203 -94 -233 -35 -50 19 61 69 235 111
386 90 332 84 311 90 311 3 0 2 -21 -2 -47z m-1860 -173 c56 -210 125 -447
160 -549 39 -117 23 -94 -28 37 -75 197 -157 486 -192 682 -14 81 16 -4 60
-170z m-745 23 c0 -22 34 -212 55 -313 91 -427 189 -688 362 -957 40 -64 103
-156 138 -204 41 -55 63 -94 59 -104 -4 -11 -2 -14 9 -9 15 5 44 -31 39 -49
-1 -4 3 -6 9 -5 6 2 14 -3 17 -11 3 -9 0 -11 -9 -6 -8 5 -11 5 -7 1 3 -4 8 -6
11 -4 2 1 24 -19 48 -47 97 -111 329 -356 329 -348 0 2 17 -13 38 -34 20 -21
36 -41 34 -45 -1 -5 4 -7 10 -6 7 2 12 -3 10 -10 -1 -8 2 -11 7 -7 10 5 112
-68 119 -85 2 -4 -5 -7 -15 -6 -10 0 -17 -5 -15 -11 3 -20 -7 -16 -54 19 -28
21 -42 38 -38 48 4 11 2 12 -6 3 -9 -8 -29 2 -81 44 -38 30 -66 60 -62 66 3 6
1 7 -6 3 -16 -10 -316 288 -306 305 5 7 4 10 -2 6 -5 -4 -21 6 -35 21 -30 33
-43 63 -24 56 8 -3 17 -1 20 4 3 5 -6 8 -19 6 -26 -2 -59 21 -50 36 3 5 1 11
-5 15 -5 3 -8 16 -6 28 1 12 1 16 -1 9 -3 -7 -10 -9 -16 -5 -7 4 -3 -6 7 -22
17 -26 17 -28 2 -16 -28 23 -76 98 -68 106 4 5 2 5 -5 1 -7 -4 -17 3 -24 16
-14 27 -110 158 -116 158 -2 0 3 -13 12 -30 9 -16 12 -30 7 -30 -4 0 -42 52
-83 116 -87 136 -105 161 -89 124 10 -23 9 -23 -15 5 -63 72 -193 370 -239
547 -25 95 -51 302 -60 475 l-5 92 52 30 c56 31 67 35 67 24z m3373 -45 c25
-18 27 -25 27 -86 0 -37 -5 -106 -12 -152 -7 -47 -11 -105 -11 -130 1 -30 -1
-39 -6 -25 -7 16 -9 13 -15 -19 -4 -21 -5 -41 -2 -44 3 -3 6 5 6 18 0 13 3 21
6 17 18 -18 -61 -310 -118 -437 -65 -143 -108 -220 -108 -193 0 7 5 15 10 18
6 3 10 12 10 18 0 7 -7 3 -16 -8 -8 -11 -12 -26 -9 -34 7 -17 -53 -111 -71
-111 -7 0 -11 -6 -9 -12 3 -7 -6 -31 -20 -53 -25 -41 -34 -42 -14 -2 9 19 7
18 -10 -3 -11 -14 -18 -32 -15 -40 3 -8 2 -11 -2 -7 -4 4 -13 2 -21 -4 -11
-10 -11 -15 -1 -27 10 -13 10 -14 1 -8 -8 4 -13 2 -13 -6 0 -7 -9 -21 -20 -33
-11 -11 -31 -33 -45 -50 l-26 -30 21 42 c32 66 24 61 -36 -23 -90 -125 -201
-259 -314 -377 -107 -112 -386 -361 -451 -402 -20 -13 -43 -30 -51 -38 -8 -9
-28 -24 -44 -34 -16 -10 -59 -39 -96 -65 -64 -47 -85 -58 -73 -38 3 6 -1 7
-10 3 -12 -4 -13 -8 -5 -13 7 -5 -2 -15 -25 -29 -42 -24 -49 -26 -39 -8 4 6 4
9 0 5 -4 -3 -8 -10 -8 -15 -1 -14 -61 -53 -81 -53 -11 0 -15 -5 -11 -11 4 -7
-1 -7 -16 1 -12 6 -19 14 -16 17 2 3 1 16 -4 29 -9 22 -7 24 25 24 18 0 36 4
39 9 3 5 25 19 48 30 41 21 42 21 19 1 -13 -11 -19 -20 -13 -20 11 0 68 43
147 112 72 63 102 81 116 72 7 -4 9 -3 6 3 -6 10 105 115 119 112 4 0 11 6 16
15 5 9 14 16 19 16 6 0 7 -6 3 -12 -4 -8 -3 -10 2 -5 5 5 9 12 9 17 0 17 87
100 98 94 7 -4 9 -3 4 1 -10 11 83 106 96 98 6 -3 7 -2 4 4 -8 13 67 86 78 76
4 -5 5 -3 2 3 -8 14 16 37 27 27 4 -4 4 -1 1 8 -6 17 39 62 51 51 4 -4 4 -2 1
4 -8 14 52 86 65 78 7 -5 8 -2 3 6 -4 7 -4 15 1 19 34 24 239 308 321 444 111
184 192 383 262 647 45 169 90 394 97 486 l7 81 31 -15 c17 -8 43 -24 59 -34z
m-2913 -98 c17 -47 50 -123 73 -170 48 -99 160 -513 126 -469 -68 90 -173 362
-208 536 -21 107 -34 199 -27 192 3 -3 19 -43 36 -89z m2401 -2 c-27 -188 -81
-370 -151 -508 -64 -126 -72 -125 -34 5 19 66 48 161 64 210 16 50 50 157 75
238 26 82 49 146 52 143 3 -3 0 -42 -6 -88z m232 85 c-7 -2 -19 -2 -25 0 -7 3
-2 5 12 5 14 0 19 -2 13 -5z m-39 -18 c3 -8 2 -15 -3 -15 -5 0 -11 -14 -15
-32 -8 -39 15 -68 54 -68 51 0 66 47 29 94 -27 34 -17 34 16 -1 14 -15 25 -22
25 -15 0 7 5 10 10 7 35 -22 -20 -110 -76 -121 -47 -9 -94 35 -94 88 0 45 14
78 34 78 8 0 16 -7 20 -15z m-2899 -59 c-4 -37 13 -56 49 -56 40 0 60 21 54
55 -4 21 -3 23 9 13 11 -9 16 -9 24 3 6 10 9 6 9 -14 0 -38 -58 -97 -94 -97
-60 0 -129 113 -71 116 16 1 21 -4 20 -20z m-782 -98 c-2 -5 0 -8 5 -8 5 0 15
-28 22 -62 7 -35 43 -155 80 -266 38 -112 64 -200 58 -194 -5 5 -37 74 -70
153 -63 151 -105 294 -113 388 -5 54 -5 55 9 26 8 -16 12 -33 9 -37z m417 25
c0 -81 50 -355 85 -461 52 -160 147 -369 192 -423 8 -9 15 -26 16 -37 0 -11 4
-19 8 -16 10 6 44 -48 41 -65 -2 -7 1 -10 6 -7 5 3 8 -15 7 -42 -3 -46 -3 -46
11 -19 8 15 17 27 20 27 2 0 0 -9 -6 -20 -6 -11 -8 -26 -4 -32 5 -7 3 -8 -6
-3 -10 6 -12 4 -7 -9 13 -33 -13 -5 -56 62 -71 110 -213 362 -258 458 -56 120
-113 297 -138 428 -29 150 -30 148 27 173 63 28 62 28 62 -14z m3779 16 l51
-22 -6 -41 c-15 -107 -47 -252 -75 -339 -35 -108 -151 -345 -252 -513 -68
-113 -114 -177 -103 -141 3 10 2 15 -3 12 -5 -3 -13 0 -17 6 -5 8 -3 9 6 4 8
-5 11 -3 8 6 -7 18 10 51 22 44 5 -3 12 0 16 6 4 7 3 9 -4 5 -7 -4 -10 1 -9
14 1 13 5 16 11 10 13 -13 26 -13 26 1 0 5 -5 7 -10 4 -6 -4 -8 3 -6 17 2 13
9 22 15 21 6 -2 12 3 13 10 0 6 2 17 2 22 1 6 6 17 11 25 5 8 10 21 12 29 1 8
6 17 10 20 5 3 17 26 27 51 87 220 137 400 161 585 23 175 25 185 34 185 5 0
31 -10 60 -21z m357 -117 c-33 -143 -146 -435 -162 -419 -3 3 3 26 15 51 11
25 18 46 16 46 -1 0 16 58 40 129 24 71 54 171 67 221 19 74 25 87 32 70 6
-14 4 -46 -8 -98z m-4826 -147 c116 -293 346 -678 577 -966 103 -128 302 -359
309 -359 2 0 -20 37 -50 83 -29 45 -80 134 -114 197 -73 138 -214 441 -208
447 2 2 21 -27 41 -64 77 -138 242 -367 456 -633 366 -455 777 -805 1381
-1178 l147 -91 148 90 c563 346 932 648 1299 1064 195 220 422 524 544 727 28
46 50 80 50 77 0 -4 -38 -87 -83 -185 -91 -195 -185 -372 -247 -466 -22 -33
-40 -62 -40 -64 0 -10 273 306 355 411 203 260 377 552 499 840 26 61 55 127
64 149 33 77 22 15 -19 -105 -253 -755 -835 -1573 -1537 -2161 -248 -208 -547
-414 -951 -656 l-83 -50 -127 78 c-582 358 -911 615 -1301 1017 -433 446 -855
1072 -1049 1561 -43 107 -104 288 -115 337 l-6 30 14 -26 c8 -14 29 -61 46
-104z m167 -305 c16 -30 40 -72 52 -92 13 -21 21 -38 18 -38 -9 0 -107 172
-107 188 0 10 8 -3 37 -58z m13 50 c0 8 2 11 5 8 3 -3 2 -15 -2 -26 -8 -20 -8
-20 -20 4 -10 22 -10 24 3 14 11 -10 14 -10 14 0z m4781 -17 c-12 -20 -14 -14
-5 12 4 9 9 14 11 11 3 -2 0 -13 -6 -23z m-4701 -4 c0 8 3 12 6 8 3 -3 1 -14
-5 -24 -8 -14 -10 -14 -11 -3 0 13 -1 13 -10 0 -11 -17 -13 -9 -4 15 5 13 8
14 15 3 7 -11 9 -10 9 1z m4597 -31 c-3 -7 -5 -2 -5 12 0 14 2 19 5 13 2 -7 2
-19 0 -25z m40 -20 c-3 -7 -5 -2 -5 12 0 14 2 19 5 13 2 -7 2 -19 0 -25z
m-4680 -30 c-3 -7 -5 -2 -5 12 0 14 2 19 5 13 2 -7 2 -19 0 -25z m33 1 c5 10
9 9 13 -2 4 -10 0 -14 -11 -13 -9 2 -17 11 -18 22 -1 19 -1 19 3 0 4 -14 7
-16 13 -7z m3046 -66 c-34 -99 -110 -271 -169 -383 -53 -101 -133 -230 -142
-230 -3 0 19 48 49 108 29 59 95 199 146 312 83 183 130 274 137 266 2 -1 -8
-34 -21 -73z m1604 49 c0 -5 -7 -17 -15 -28 -14 -18 -14 -17 -4 9 12 27 19 34
19 19z m-3092 -42 c5 0 49 -89 97 -197 49 -109 117 -253 151 -320 34 -68 60
-123 57 -123 -16 0 -184 297 -237 420 -57 131 -96 234 -95 248 0 12 3 10 9 -5
5 -13 13 -23 18 -23z m-270 -190 c37 -74 70 -136 75 -138 4 -2 7 -11 7 -20 0
-9 5 -24 11 -32 8 -11 9 -9 4 10 -10 36 1 22 100 -130 48 -74 97 -145 108
-157 11 -12 16 -27 12 -34 -5 -7 -4 -10 3 -5 6 3 21 -8 33 -26 13 -18 59 -75
103 -126 119 -138 255 -253 524 -441 l32 -22 83 58 c179 126 247 181 358 292
135 136 240 266 346 429 42 64 81 120 87 124 6 4 7 8 3 8 -4 0 11 27 33 60 22
33 43 68 47 77 3 10 25 47 48 83 22 36 52 84 65 108 13 23 27 42 31 42 7 0 -8
-57 -30 -114 -6 -16 -9 -38 -6 -50 5 -17 4 -18 -4 -6 -9 12 -11 10 -12 -10 -1
-14 -1 -31 0 -39 2 -7 -2 -11 -7 -7 -9 5 -53 -91 -59 -128 -4 -21 -12 -38 -63
-131 -40 -74 -81 -134 -120 -177 -17 -18 -30 -41 -30 -51 0 -10 -4 -15 -10
-12 -5 3 -10 1 -10 -4 0 -18 -38 -60 -220 -241 -181 -181 -251 -241 -405 -352
-138 -99 -121 -97 -217 -31 -46 31 -137 99 -203 151 -142 111 -449 417 -441
439 3 8 2 11 -3 8 -12 -7 -42 35 -35 47 3 5 0 7 -8 6 -7 -2 -13 5 -13 14 0 10
-7 23 -15 30 -12 11 -12 10 -5 -2 6 -9 0 -5 -11 8 -12 13 -21 32 -20 41 0 9
-4 15 -10 14 -6 -1 -17 10 -25 25 -7 15 -19 35 -27 44 -8 9 -11 22 -6 29 5 8
3 10 -6 4 -10 -6 -12 -4 -7 9 4 9 3 15 -2 12 -9 -6 -94 151 -116 215 -14 41
-14 43 1 24 16 -19 16 -19 10 -1 -4 11 -22 65 -40 120 -19 56 -37 110 -41 121
-19 54 41 -42 103 -165z m-58 -2 c6 -10 10 -23 10 -30 -1 -21 -26 32 -49 101
-29 89 -25 101 5 16 14 -38 29 -78 34 -87z m2589 -230 c-5 -10 -12 -18 -15
-18 -2 0 -1 8 4 18 5 9 7 24 5 32 -4 13 -3 13 6 1 6 -10 6 -21 0 -33z m-47
-73 c-15 -25 -29 -45 -32 -45 -9 0 -6 47 3 56 4 5 5 1 1 -9 -11 -30 13 -18 26
13 7 17 16 30 21 30 5 0 -4 -20 -19 -45z m-2892 -58 c0 -5 9 -22 21 -38 11
-16 18 -29 15 -29 -3 0 -28 35 -56 78 -43 64 -45 70 -16 37 20 -22 36 -44 36
-48z m-11 49 c-3 -3 -11 5 -18 17 -13 21 -12 21 5 5 10 -10 16 -20 13 -22z
m22 -19 c-10 -9 -11 -8 -5 6 3 10 9 15 12 12 3 -3 0 -11 -7 -18z m2819 -57
c-6 -10 -15 -22 -21 -26 -6 -4 -6 3 2 17 7 13 12 28 11 32 -1 5 2 6 8 2 7 -4
7 -12 0 -25z m-2690 -61 c0 -6 -4 -7 -10 -4 -5 3 -10 11 -10 16 0 6 5 7 10 4
6 -3 10 -11 10 -16z m2650 7 c0 -2 -8 -10 -17 -17 -16 -13 -17 -12 -4 4 13 16
21 21 21 13z m-2699 -23 c9 -9 7 -11 -5 -9 -9 1 -21 7 -27 13 -9 9 -7 11 5 9
9 -1 21 -7 27 -13z m89 -3 c0 -5 -2 -10 -4 -10 -3 0 -8 5 -11 10 -3 6 -1 10 4
10 6 0 11 -4 11 -10z m2570 -24 c0 -3 -4 -8 -10 -11 -5 -3 -10 -1 -10 4 0 6 5
11 10 11 6 0 10 -2 10 -4z m-2574 -32 c11 28 31 18 73 -36 22 -29 45 -58 51
-65 5 -7 6 -14 1 -17 -5 -3 -12 2 -15 11 -6 14 -8 14 -20 -3 -14 -18 -15 -18
-35 0 -12 11 -21 24 -21 30 0 6 4 4 10 -4 5 -8 13 -11 17 -6 9 9 -35 48 -47
41 -5 -3 -15 4 -23 15 -7 11 -17 17 -20 13 -4 -3 1 -15 10 -26 10 -11 13 -17
6 -13 -7 3 -22 21 -35 38 -12 17 -17 28 -10 24 7 -4 12 -2 12 5 0 8 7 5 20 -6
18 -16 20 -16 26 -1z m2441 -131 c-68 -80 -156 -168 -305 -307 -39 -36 -56
-46 -64 -38 -8 8 6 28 53 74 35 34 64 67 64 72 0 6 15 10 34 9 25 -1 31 1 22
10 -6 6 -11 15 -11 21 0 5 7 1 16 -10 13 -16 15 -16 10 -2 -3 10 -1 20 4 23 6
4 10 11 10 16 0 6 -4 8 -9 4 -5 -3 -12 -1 -15 4 -4 5 2 8 11 7 9 -2 19 -8 21
-14 2 -7 8 -12 14 -12 6 0 7 7 4 16 -3 8 -2 13 3 9 5 -3 20 8 34 24 14 17 28
27 32 23 4 -4 5 0 4 8 -2 8 1 17 6 19 6 3 24 20 40 39 40 45 87 92 92 92 2 0
-29 -39 -70 -87z m-2376 -10 c13 -16 12 -17 -3 -4 -17 13 -22 21 -14 21 2 0
10 -8 17 -17z m139 -102 c-15 -29 -26 -33 -41 -13 -13 15 -12 16 3 4 14 -11
18 -10 28 7 6 12 13 21 16 21 2 0 0 -9 -6 -19z m64 -94 c4 5 7 4 6 -2 -5 -22
1 -31 20 -31 19 0 25 9 21 29 -1 5 3 6 9 2 7 -4 7 -12 0 -24 -11 -22 -2 -35
16 -20 8 7 14 6 20 -2 5 -8 3 -9 -6 -4 -8 5 -11 3 -8 -6 3 -8 11 -13 18 -11
20 5 79 -58 73 -75 -5 -12 -1 -14 14 -9 22 7 80 -45 69 -63 -8 -13 43 -63 55
-55 5 3 7 10 3 15 -3 5 -9 7 -13 5 -4 -3 -13 5 -21 17 -12 21 -12 21 6 7 10
-8 37 -30 60 -50 23 -19 69 -57 102 -83 34 -27 62 -53 62 -59 0 -5 4 -7 9 -3
5 3 13 0 17 -6 4 -7 3 -9 -4 -5 -21 13 -22 -13 -1 -28 26 -18 45 -11 28 10
-19 23 -4 16 17 -8 10 -12 13 -18 7 -14 -8 4 -13 2 -13 -5 0 -6 8 -9 20 -6 11
3 28 -2 38 -11 9 -10 13 -14 8 -9 -17 12 -29 8 -17 -6 14 -18 2 -30 -16 -16
-11 10 -11 15 -1 28 11 14 11 14 -4 3 -14 -11 -23 -8 -60 18 -23 17 -67 46
-95 66 -30 20 -50 41 -46 47 3 5 1 7 -4 4 -12 -8 -133 90 -133 106 0 6 -3 8
-6 4 -4 -3 -27 13 -53 37 -25 24 -74 68 -108 99 -35 32 -58 57 -52 57 5 0 7 5
4 10 -4 6 -12 9 -18 8 -7 -1 -26 11 -42 27 -45 44 -65 76 -24 37 19 -18 39
-29 43 -25z m-24 43 c0 -5 -2 -10 -4 -10 -3 0 -8 5 -11 10 -3 6 -1 10 4 10 6
0 11 -4 11 -10z m57 -45 c0 -8 -4 -12 -9 -9 -5 3 -6 10 -3 15 9 13 12 11 12
-6z m1757 -167 c-27 -29 -271 -220 -280 -218 -4 1 -11 -5 -16 -14 -5 -9 -14
-13 -20 -10 -7 4 -8 2 -4 -4 4 -6 -6 -19 -21 -29 -15 -9 -44 -30 -65 -46 -27
-22 -40 -27 -53 -20 -15 9 -13 13 16 36 24 19 36 23 41 14 7 -11 12 -2 9 16
-1 4 12 15 29 25 16 9 30 20 30 25 0 4 6 7 13 7 7 0 18 9 25 21 11 17 16 19
29 7 15 -11 16 -11 10 5 -5 14 -2 20 13 24 11 3 17 10 13 16 -4 6 0 8 10 4 12
-4 14 -2 10 10 -5 12 -2 15 10 10 12 -4 14 -2 10 11 -6 14 -4 15 9 4 12 -10
17 -10 27 1 6 8 8 17 4 20 -3 4 1 7 10 7 9 0 19 5 23 12 4 7 3 8 -4 4 -7 -4
-12 -5 -12 -1 0 3 12 10 26 15 14 6 22 14 19 20 -4 6 1 7 11 3 13 -5 16 -3 11
10 -4 11 -2 14 9 10 12 -4 12 -8 2 -22 -12 -14 -11 -14 4 -3 10 8 17 17 16 20
-2 20 4 31 20 35 28 6 34 -4 16 -25z m-1113 -198 c45 -39 54 -45 62 -42 5 1 5
-3 1 -10 -13 -21 -13 -39 -1 -35 7 2 13 9 13 15 3 25 4 26 17 13 10 -10 8 -14
-6 -23 -18 -9 -18 -11 -1 -29 9 -10 22 -19 28 -19 6 0 3 5 -6 11 -10 5 -18 15
-18 21 0 7 4 7 13 -1 8 -6 18 -7 22 -3 5 4 5 1 1 -5 -4 -7 -3 -13 3 -13 5 0
17 -3 27 -7 13 -5 15 -3 9 8 -4 8 -5 11 -1 7 4 -3 6 -9 4 -12 -3 -6 47 -36 59
-36 3 0 -1 8 -8 18 -13 15 -12 16 4 3 25 -20 7 -34 -28 -21 -15 6 -30 8 -33 5
-3 -3 -1 -5 5 -5 6 0 14 -7 17 -15 5 -14 3 -14 -17 0 -12 8 -22 21 -22 28 0 6
-9 11 -20 10 -26 -2 -100 48 -84 57 7 5 8 10 1 14 -6 3 -13 2 -17 -4 -4 -6
-11 -8 -16 -4 -6 4 -4 13 6 24 10 11 12 20 6 24 -5 4 -12 2 -16 -4 -3 -5 -11
-10 -16 -10 -6 0 -7 5 -4 10 3 6 2 10 -4 10 -5 0 -11 -4 -13 -9 -1 -5 -11 -3
-22 4 -19 14 -16 52 3 40 6 -3 8 -12 4 -20 -6 -18 6 -19 27 -4 13 9 12 10 -2
5 -11 -3 -15 -1 -12 8 7 19 -14 30 -30 17 -7 -6 -17 -7 -21 -3 -5 4 -5 1 -1
-5 4 -7 3 -13 -3 -13 -5 0 -9 9 -8 20 1 12 7 18 14 16 7 -3 15 -1 19 5 4 6 14
3 27 -8 11 -10 28 -25 38 -33z m623 -151 c-4 -8 1 -9 17 -4 l24 6 -25 -20
c-13 -11 -28 -17 -33 -14 -5 3 -3 10 4 15 11 8 11 9 -1 5 -8 -2 -14 -10 -13
-18 1 -8 -12 -24 -30 -35 -18 -12 -76 -51 -130 -87 -64 -44 -103 -64 -114 -60
-11 4 -14 3 -9 -5 10 -16 -6 -15 -23 1 -9 7 -12 8 -7 0 4 -7 -1 -9 -14 -6 -11
3 -20 14 -20 24 0 16 3 17 24 8 18 -8 30 -7 52 4 16 8 34 12 41 10 16 -6 64
27 57 38 -5 8 10 13 29 10 5 -1 6 3 3 8 -4 5 -2 12 4 16 5 3 10 1 10 -5 0 -6
5 -8 10 -5 6 4 8 11 5 16 -3 5 2 6 11 2 12 -4 15 -3 10 6 -5 7 -2 10 5 9 7 -2
13 2 14 9 0 7 22 28 50 47 54 39 60 42 49 25z m-623 -49 c6 0 7 5 4 10 -3 6
-2 10 4 10 14 0 21 -14 13 -27 -5 -9 -17 -6 -40 9 -17 11 -29 24 -26 30 3 5
13 0 21 -11 8 -12 19 -21 24 -21z m224 10 c-3 -5 -12 -10 -18 -10 -7 0 -6 4 3
10 19 12 23 12 15 0z m-155 -27 c0 -3 -7 -3 -15 1 -26 9 -17 -1 20 -24 19 -12
38 -19 43 -16 5 3 16 -4 25 -15 9 -10 14 -19 11 -19 -4 0 4 -9 17 -20 24 -21
-83 41 -122 71 -23 17 -18 42 6 32 8 -3 15 -7 15 -10z m177 2 c0 -8 -4 -12 -9
-9 -4 3 -8 9 -8 15 0 5 4 9 8 9 5 0 9 -7 9 -15z m-26 -122 c13 -16 12 -17 -3
-4 -17 13 -22 21 -14 21 2 0 10 -8 17 -17z"/>
<path d="M2486 8053 c-9 -55 -7 -73 6 -73 15 0 78 49 78 61 0 9 -58 49 -71 49
-4 0 -9 -17 -13 -37z"/>
<path d="M7723 8073 c-18 -9 -33 -23 -33 -30 0 -14 69 -83 83 -83 9 0 9 56 1
99 -7 35 -8 35 -51 14z"/>
<path d="M3345 7181 c-46 -28 -66 -56 -72 -99 -10 -74 52 -152 121 -152 69 0
134 54 143 118 15 109 -101 189 -192 133z m113 -33 c36 -35 26 -101 -22 -140
-34 -28 -62 -22 -91 19 -35 53 -33 94 7 128 36 30 68 28 106 -7z"/>
<path d="M6808 7185 c-62 -34 -87 -129 -48 -192 70 -115 243 -59 243 78 0 93
-112 159 -195 114z m77 -15 c11 -5 16 -9 11 -9 -5 -1 -3 -8 4 -16 7 -9 10 -18
6 -22 -3 -3 0 -16 8 -28 15 -23 11 -65 -6 -65 -5 0 -6 -4 -3 -10 7 -12 -50
-25 -91 -21 -19 2 -45 79 -38 109 14 57 60 83 109 62z"/>
<path d="M2540 7271 c0 -5 5 -13 10 -16 6 -3 10 -2 10 4 0 5 -4 13 -10 16 -5
3 -10 2 -10 -4z"/>
<path d="M5652 7025 c0 -16 2 -22 5 -12 2 9 2 23 0 30 -3 6 -5 -1 -5 -18z"/>
<path d="M5643 6935 c0 -33 2 -45 4 -27 2 18 2 45 0 60 -2 15 -4 0 -4 -33z"/>
<path d="M4900 6876 c0 -2 7 -7 16 -10 8 -3 12 -2 9 4 -6 10 -25 14 -25 6z"/>
<path d="M5175 6760 c-3 -6 1 -7 9 -4 18 7 21 14 7 14 -6 0 -13 -4 -16 -10z"/>
<path d="M5135 6731 c-3 -5 -1 -12 5 -16 5 -3 10 1 10 9 0 18 -6 21 -15 7z"/>
<path d="M4738 6664 c42 -61 88 -192 117 -333 9 -41 18 -77 21 -80 4 -3 4 8 0
24 -13 63 -33 242 -32 288 1 46 -6 60 -18 35 -3 -7 -4 1 -1 17 4 18 2 25 -3
17 -6 -9 -13 -7 -28 9 -10 12 -37 35 -58 52 l-39 31 41 -60z"/>
<path d="M5473 6673 c-13 -9 -23 -21 -23 -28 0 -7 -8 -23 -19 -36 -13 -18 -20
-49 -25 -119 -3 -52 -13 -122 -20 -155 -8 -33 -13 -62 -11 -64 8 -7 25 46 61
189 20 80 43 162 51 183 18 45 16 50 -14 30z"/>
<path d="M4065 5986 c10 -14 19 -26 22 -26 7 0 -17 39 -28 46 -6 3 -3 -5 6
-20z"/>
<path d="M4020 5976 c0 -2 8 -10 18 -17 15 -13 16 -12 3 4 -13 16 -21 21 -21
13z"/>
<path d="M6185 5984 c-9 -14 -14 -28 -12 -31 3 -3 13 9 22 26 19 38 14 41 -10
5z"/>
<path d="M6273 5943 c-7 -2 -13 -9 -13 -15 0 -7 5 -7 13 1 8 6 18 7 22 3 5 -4
5 -1 1 6 -4 6 -8 12 -9 11 -1 0 -8 -3 -14 -6z"/>
<path d="M6161 5597 c-16 -16 -13 -47 5 -54 17 -6 34 12 34 38 0 21 -24 31
-39 16z"/>
<path d="M4250 5249 c-118 -38 -219 -71 -225 -74 -56 -26 298 79 430 129 102
38 -11 8 -205 -55z"/>
<path d="M4771 4764 c0 -11 3 -14 6 -6 3 7 2 16 -1 19 -3 4 -6 -2 -5 -13z"/>
<path d="M4781 4729 c-1 -17 39 -142 45 -137 1 2 -8 37 -21 78 -13 41 -24 68
-24 59z"/>
<path d="M5486 4710 c-15 -68 -30 -131 -33 -140 -4 -12 -3 -12 6 1 20 30 62
197 59 231 -2 24 -11 -1 -32 -92z"/>
<path d="M4284 4825 c-8 -32 1 -43 24 -29 22 14 22 48 0 52 -12 2 -19 -5 -24
-23z"/>
<path d="M5951 4833 c-12 -24 1 -46 25 -41 13 2 19 12 19 28 0 30 -30 39 -44
13z"/>
<path d="M3660 3430 c6 -11 13 -20 16 -20 2 0 0 9 -6 20 -6 11 -13 20 -16 20
-2 0 0 -9 6 -20z"/>
<path d="M4135 2840 c-3 -5 -1 -10 4 -10 6 0 11 5 11 10 0 6 -2 10 -4 10 -3 0
-8 -4 -11 -10z"/>
<path d="M4200 2756 c0 -2 8 -10 18 -17 15 -13 16 -12 3 4 -13 16 -21 21 -21
13z"/>
<path d="M4280 2686 c0 -2 8 -10 18 -17 15 -13 16 -12 3 4 -13 16 -21 21 -21
13z"/>
<path d="M4341 2654 c6 -7 16 -11 21 -8 11 7 3 17 -18 20 -12 2 -13 -1 -3 -12z"/>
<path d="M4430 2585 c13 -14 26 -25 28 -25 3 0 -5 11 -18 25 -13 14 -26 25
-28 25 -3 0 5 -11 18 -25z"/>
<path d="M4376 2588 c3 -5 10 -6 15 -3 13 9 11 12 -6 12 -8 0 -12 -4 -9 -9z"/>
<path d="M4449 2523 c-13 -16 -12 -17 4 -4 9 7 17 15 17 17 0 8 -8 3 -21 -13z"/>
<path d="M4486 2518 c3 -5 10 -6 15 -3 13 9 11 12 -6 12 -8 0 -12 -4 -9 -9z"/>
<path d="M4600 2386 c0 -2 8 -10 18 -17 15 -13 16 -12 3 4 -13 16 -21 21 -21
13z"/>
<path d="M6832 4015 c0 -16 2 -22 5 -12 2 9 2 23 0 30 -3 6 -5 -1 -5 -18z"/>
<path d="M6811 3934 c0 -11 3 -14 6 -6 3 7 2 16 -1 19 -3 4 -6 -2 -5 -13z"/>
<path d="M6786 3854 c-4 -14 -5 -28 -3 -31 3 -2 8 8 11 23 4 14 5 28 3 31 -3
2 -8 -8 -11 -23z"/>
<path d="M6702 3622 c-17 -42 -25 -68 -17 -58 16 22 58 127 52 132 -2 2 -17
-31 -35 -74z"/>
<path d="M5440 2260 c-9 -6 -10 -10 -3 -10 6 0 15 5 18 10 8 12 4 12 -15 0z"/>
<path d="M3580 3380 c0 -5 10 -15 23 -21 22 -12 22 -12 3 10 -21 23 -26 26
-26 11z"/>
<path d="M3606 3311 c-4 -6 -3 -11 3 -11 6 0 8 -8 5 -17 -5 -16 -4 -16 6 0 8
13 9 22 2 29 -6 6 -12 6 -16 -1z"/>
<path d="M6681 3351 c-8 -5 -9 -11 -3 -15 5 -3 12 1 16 9 6 17 6 18 -13 6z"/>
<path d="M6235 2174 c-60 -52 -195 -161 -300 -241 -292 -225 -780 -541 -814
-528 -22 9 -375 223 -492 299 -172 111 -370 267 -594 469 l-90 80 70 -72 c81
-84 241 -222 471 -407 88 -71 212 -172 275 -225 132 -111 286 -228 339 -258
l36 -20 175 117 c224 151 378 266 564 422 148 123 500 460 480 459 -5 0 -59
-43 -120 -95z"/>
<path d="M4260 3091 c0 -6 4 -13 10 -16 6 -3 7 1 4 9 -7 18 -14 21 -14 7z"/>
<path d="M4380 3006 c0 -2 8 -10 18 -17 15 -13 16 -12 3 4 -13 16 -21 21 -21
13z"/>
<path d="M4410 2966 c0 -2 8 -10 18 -17 15 -13 16 -12 3 4 -13 16 -21 21 -21
13z"/>
<path d="M4460 2936 c0 -2 7 -9 15 -16 13 -11 14 -10 9 4 -5 14 -24 23 -24 12z"/>
<path d="M3927 2955 c6 -17 4 -18 -9 -8 -18 15 -29 7 -21 -14 5 -12 7 -12 14
-1 7 10 9 10 9 -2 0 -13 1 -13 10 0 7 11 10 11 10 2 0 -7 9 -23 20 -35 12 -12
16 -23 10 -25 -13 -5 -13 -22 -1 -22 21 0 22 39 2 62 -11 13 -27 32 -36 43
l-15 20 7 -20z"/>
<path d="M6096 2631 c2 -2 -6 -15 -18 -28 -33 -35 -17 -35 19 1 26 26 28 32
13 32 -11 0 -17 -2 -14 -5z"/>
<path d="M4229 2546 c14 -15 26 -26 28 -26 9 0 -24 40 -37 45 -8 4 -4 -5 9
-19z"/>
<path d="M4267 2539 c6 -6 10 -17 8 -23 -2 -6 13 -24 33 -40 l37 -30 -31 35
c-17 18 -30 39 -27 45 2 6 -4 15 -14 18 -14 6 -15 4 -6 -5z"/>
<path d="M4300 2516 c0 -2 8 -10 18 -17 15 -13 16 -12 3 4 -13 16 -21 21 -21
13z"/>
<path d="M4367 2461 c6 -7 9 -19 7 -25 -3 -7 4 -20 15 -30 19 -17 19 -17 16 1
-1 10 -8 17 -15 15 -7 -2 -10 3 -7 12 3 8 -2 20 -11 27 -14 11 -15 11 -5 0z"/>
<path d="M4486 2336 c3 -8 13 -17 22 -21 13 -5 13 -2 -3 15 -21 24 -26 25 -19
6z"/>
<path d="M4647 2199 c7 -7 15 -10 18 -7 3 3 -2 9 -12 12 -14 6 -15 5 -6 -5z"/>
<path d="M5870 2409 c0 -5 5 -7 10 -4 6 3 10 8 10 11 0 2 -4 4 -10 4 -5 0 -10
-5 -10 -11z"/>
<path d="M5590 2200 c-12 -7 -10 -9 7 -7 12 0 19 5 17 9 -6 10 -6 10 -24 -2z"/>
<path d="M4859 2203 c-12 -16 -12 -17 2 -6 9 7 20 9 24 5 5 -4 5 -1 1 6 -9 16
-11 15 -27 -5z"/>
<path d="M5386 2055 c-11 -8 -15 -15 -9 -15 6 0 16 7 23 15 16 19 11 19 -14 0z"/>
</g>
</svg>
